<svg xmlns="http://www.w3.org/2000/svg" viewBox="0 0 32 32" fill="none">
  <rect width="32" height="32" fill="none"/>
  <path d="M6 8.5C6 6.57 7.57 5 9.5 5h13C24.43 5 26 6.57 26 8.5v9.5c0 1.93-1.57 3.5-3.5 3.5h-7.2L10 26.5V21.5H9.5C7.57 21.5 6 19.93 6 18V8.5z" fill="url(#logoBubble)"/>
  <path d="M13.2 11.8c0-.94.76-1.7 1.7-1.7h2.2c.94 0 1.7.76 1.7 1.7v.2c0 .72-.44 1.36-1.1 1.62.72.24 1.24.94 1.24 1.78V18c0 .94-.76 1.7-1.7 1.7h-2.2c-.94 0-1.7-.76-1.7-1.7v-1.3c0-.84.52-1.54 1.24-1.78-.66-.26-1.1-.9-1.1-1.62v-.2z" fill="#fff" fill-opacity="0.95"/>
  <defs>
    <linearGradient id="logoBubble" x1="6" y1="5" x2="26" y2="27" gradientUnits="userSpaceOnUse">
      <stop stop-color="#5B8FEF"/>
      <stop offset="1" stop-color="#2B63D9"/>
    </linearGradient>
  </defs>
</svg>
